<svg width="17" height="15" viewBox="0 0 336 276" xmlns="http://www.w3.org/2000/svg">
	<g>
		<title>Layer 1</title>
		<g stroke="null" id="svg_1">
			<g stroke="null" id="svg_2">
				<path stroke="null" id="svg_3" d="m316.99594,274.57001l-298.98984,0c-9.37701,0 -17.00611,-10.67288 -17.00611,-23.79495l0,-225.01015c0,-13.12113 7.6291,-23.79591 17.00611,-23.79591l298.98984,0c9.3736,0 17.00406,10.67477 17.00406,23.79591l0,225.01011c0,13.1221 -7.63046,23.79498 -17.00406,23.79498zm-298.98984,-253.37918c-1.80363,0 -3.27359,2.05163 -3.27359,4.57409l0,225.01015c0,2.52243 1.46996,4.57503 3.27359,4.57503l298.98984,0c1.80295,0 3.27084,-2.0526 3.27084,-4.57503l0,-225.01015c0,-2.52245 -1.46722,-4.57409 -3.27084,-4.57409l-298.98984,0z"/>
			</g>
			<g stroke="null" id="svg_4">
				<path stroke="null" id="svg_5" d="m131.95055,211.30702c-2.2549,-1.72635 -3.72144,-4.94409 -3.72144,-8.53944l0,-128.99424c0,-3.59725 1.43665,-6.89109 3.72144,-8.54134c2.28343,-1.6493 5.03169,-1.37442 7.12621,0.7105l64.8045,64.49664c1.81316,1.80338 2.88693,4.72153 2.88693,7.83177c0,3.11124 -1.07378,6.02936 -2.88693,7.83273c0,0 -48.60576,48.36987 -64.8045,64.49474c-1.18385,1.17848 -3.73572,3.30621 -7.12621,0.70863zm10.01378,-118.90633l0,91.73951l46.08789,-45.86928l-46.08789,-45.87023z"/>
			</g>
		</g>
	</g>
</svg>